<?xml version="1.0" encoding="UTF-8"?>
<svg width="20px" height="20px" viewBox="0 0 20 20" version="1.1" xmlns="http://www.w3.org/2000/svg" xmlns:xlink="http://www.w3.org/1999/xlink">
    <!-- Generator: Sketch 61.2 (89653) - https://sketch.com -->
    <title>more-horiz-20</title>
    <desc>Created with Sketch.</desc>
    <g id="filter" stroke="none" stroke-width="1" fill="none" fill-rule="evenodd">
        <g id="close-30" transform="translate(-323.000000, -618.000000)">
            <g id="more" transform="translate(318.000000, 613.000000)">
                <g id="more-horiz" transform="translate(5.000000, 5.000000)">
                    <rect id="Rectangle" fill="#000000" opacity="0" x="2" y="2" width="16" height="16"></rect>
                    <path d="M2,10 C2,11.1 2.9,12 4,12 C5.1,12 6,11.1 6,10 C6,8.9 5.1,8 4,8 C2.9,8 2,8.9 2,10 Z M16,8 C14.9,8 14,8.9 14,10 C14,11.1 14.9,12 16,12 C17.1,12 18,11.1 18,10 C18,8.9 17.1,8 16,8 L16,8 Z M8,10 C8,11.1 8.9,12 10,12 C11.1,12 12,11.1 12,10 C12,8.9 11.1,8 10,8 C8.9,8 8,8.9 8,10 Z" id="Shape" fill="#FFFFFF"></path>
                </g>
            </g>
        </g>
    </g>
</svg>