<?xml version="1.0" encoding="UTF-8"?>
<svg width="20px" height="20px" viewBox="0 0 20 20" version="1.1" xmlns="http://www.w3.org/2000/svg" xmlns:xlink="http://www.w3.org/1999/xlink">
    <!-- Generator: Sketch 61.2 (89653) - https://sketch.com -->
    <title>closeAll-20</title>
    <desc>Created with Sketch.</desc>
    <g id="filter" stroke="none" stroke-width="1" fill="none" fill-rule="evenodd">
        <g id="open-30" transform="translate(-215.000000, -618.000000)" fill="#FFFFFF">
            <g id="Group-5" transform="translate(210.000000, 613.000000)">
                <g id="Group-3" transform="translate(5.000000, 5.000000)">
                    <path d="M7.25008437,5.1875 C4.45389687,5.1875 2.18758437,7.45465625 2.18758437,10.25 C2.18758437,11.5029687 2.64320937,12.6504687 3.39752187,13.5347187 L10.2453969,6.16878125 C9.40670937,5.552 8.37058437,5.1875 7.25008437,5.1875 L7.25008437,5.1875 Z M10.9592094,6.80496875 L4.08433437,14.2004375 C4.95086562,14.8965312 6.05195937,15.3125 7.25008437,15.3125 C10.0454281,15.3125 12.3125844,13.0453437 12.3125844,10.25 C12.3125844,8.91940625 11.7987406,7.708625 10.9592094,6.80496875 L10.9592094,6.80496875 Z M13.34,3 C16.9483333,3 19.8875,6.024875 19.9975,9.782125 L20,10 C20,13.86575 17.0158333,17 13.34,17 L6.66,17 C2.98166667,17 0,13.857875 0,10 C0,6.13425 2.98333333,3 6.66,3 L13.34,3 Z" id="closeAll"></path>
                </g>
            </g>
        </g>
    </g>
</svg>