<?xml version="1.0" encoding="UTF-8"?>
<svg width="310px" height="28px" viewBox="0 0 310 28" version="1.1" xmlns="http://www.w3.org/2000/svg" xmlns:xlink="http://www.w3.org/1999/xlink">
    <!-- Generator: Sketch 64 (93537) - https://sketch.com -->
    <title>logo_text_updated</title>
    <desc>Created with Sketch.</desc>
    <g id="Loading" stroke="none" stroke-width="1" fill="none" fill-rule="evenodd">
        <g id="loading" transform="translate(-570.000000, -567.000000)" fill="#FFFFFF" fill-rule="nonzero">
            <path d="M572.500884,588.253012 L574.665542,583.024096 L584.954699,583.024096 L587.14747,588.253012 L589.396466,588.253012 L580.850281,568.349398 L578.88241,568.349398 L570.28,588.253012 L572.500884,588.253012 Z M584.195663,581.168675 L575.424578,581.168675 L579.81012,570.598394 L584.195663,581.168675 Z M594.119357,588.253012 L594.119357,581.506024 C594.119357,580.625167 594.227122,579.870817 594.442651,579.242972 C594.658179,578.615127 594.939304,578.099732 595.286024,577.696787 C595.632744,577.293842 596.040375,576.998661 596.508916,576.811245 C596.977456,576.623829 597.464739,576.53012 597.970763,576.53012 C598.233146,576.53012 598.495529,576.548862 598.757912,576.586345 C599.020295,576.623829 599.207711,576.661312 599.320161,576.698795 L599.320161,576.698795 L599.573173,574.899598 C599.367015,574.843373 599.165542,574.80589 598.968755,574.787149 C598.771968,574.768407 598.551754,574.759036 598.308112,574.759036 C597.371031,574.759036 596.527657,574.997992 595.777992,575.475904 C595.028327,575.953815 594.466078,576.576975 594.091245,577.345382 L594.091245,577.345382 L594.03502,577.345382 C594.03502,577.064257 594.025649,576.708166 594.006908,576.277108 C593.988166,575.846051 593.960054,575.452477 593.92257,575.096386 L593.92257,575.096386 L592.095261,575.096386 C592.132744,575.546185 592.160857,576.052209 592.179598,576.614458 C592.19834,577.176707 592.207711,577.635877 592.207711,577.991968 L592.207711,577.991968 L592.207711,588.253012 L594.119357,588.253012 Z M607.894458,588.590361 C609.037697,588.590361 610.016948,588.384203 610.832209,587.971888 C611.64747,587.559572 612.336225,587.006693 612.898474,586.313253 L612.898474,586.313253 L611.464739,585.24498 C611.089906,585.751004 610.611995,586.16332 610.031004,586.481928 C609.450013,586.800535 608.737831,586.959839 607.894458,586.959839 C607.126051,586.959839 606.43261,586.823963 605.814137,586.552209 C605.195663,586.280455 604.670897,585.905622 604.239839,585.427711 C603.808782,584.949799 603.476118,584.392236 603.241847,583.75502 C603.007577,583.117805 602.890442,582.424364 602.890442,581.674699 C602.890442,580.925033 603.007577,580.226908 603.241847,579.580321 C603.476118,578.933735 603.813467,578.371486 604.253896,577.893574 C604.694324,577.415663 605.223775,577.04083 605.842249,576.769076 C606.460723,576.497323 607.154163,576.361446 607.92257,576.361446 C608.634752,576.361446 609.295395,576.525435 609.904498,576.853414 C610.513601,577.181392 610.977456,577.598394 611.296064,578.104418 L611.296064,578.104418 L612.786024,577.036145 C612.223775,576.286479 611.488166,575.719545 610.579197,575.335341 C609.670228,574.951138 608.775315,574.759036 607.894458,574.759036 C606.826185,574.759036 605.860991,574.932396 604.998876,575.279116 C604.13676,575.625837 603.401151,576.108434 602.792048,576.726908 C602.182945,577.345382 601.709719,578.076305 601.372369,578.919679 C601.03502,579.763052 600.866345,580.681392 600.866345,581.674699 C600.866345,582.668005 601.03502,583.586345 601.372369,584.429719 C601.709719,585.273092 602.182945,586.004016 602.792048,586.62249 C603.401151,587.240964 604.13676,587.723561 604.998876,588.070281 C605.860991,588.417001 606.826185,588.590361 607.894458,588.590361 Z M625.296064,588.759036 C626.645462,588.759036 627.948005,588.599732 629.203695,588.281124 C630.459384,587.962517 631.630736,587.475234 632.717751,586.819277 L632.717751,586.819277 L632.717751,577.851406 L626.0551,577.851406 L626.0551,579.62249 L630.693655,579.62249 L630.693655,585.666667 C630.112664,586.041499 629.353628,586.350736 628.416546,586.594378 C627.479465,586.838019 626.448675,586.959839 625.324177,586.959839 C624.049746,586.959839 622.901821,586.725569 621.880402,586.257028 C620.858983,585.788487 619.992182,585.160643 619.28,584.373494 C618.567818,583.586345 618.019625,582.668005 617.635422,581.618474 C617.251218,580.568942 617.059116,579.463186 617.059116,578.301205 C617.059116,577.139224 617.251218,576.033467 617.635422,574.983936 C618.019625,573.934404 618.567818,573.011379 619.28,572.214859 C619.992182,571.41834 620.858983,570.78581 621.880402,570.317269 C622.901821,569.848728 624.049746,569.614458 625.324177,569.614458 C626.561124,569.614458 627.65751,569.81593 628.613333,570.218876 C629.569157,570.621821 630.393788,571.188755 631.087229,571.919679 L631.087229,571.919679 L632.492851,570.514056 C631.649478,569.670683 630.63743,569.014726 629.456707,568.546185 C628.275984,568.077644 626.889103,567.843373 625.296064,567.843373 C623.815475,567.843373 622.442651,568.105756 621.17759,568.630522 C619.91253,569.155288 618.816145,569.881526 617.888434,570.809237 C616.960723,571.736948 616.234485,572.838019 615.709719,574.11245 C615.184953,575.386881 614.92257,576.783133 614.92257,578.301205 C614.92257,579.819277 615.180268,581.215529 615.695663,582.48996 C616.211058,583.764391 616.927925,584.865462 617.846265,585.793173 C618.764605,586.720884 619.860991,587.447122 621.135422,587.971888 C622.409853,588.496653 623.796734,588.759036 625.296064,588.759036 Z M639.914538,588.253012 L639.914538,568.349398 L637.890442,568.349398 L637.890442,588.253012 L639.914538,588.253012 Z M650.231807,588.759036 C651.018956,588.759036 651.801419,588.646586 652.579197,588.421687 C653.356975,588.196787 654.050415,587.850067 654.659518,587.381526 C655.268621,586.912985 655.765274,586.317938 656.149478,585.596386 C656.533681,584.874833 656.725783,584.017403 656.725783,583.024096 C656.725783,582.03079 656.547738,581.210843 656.191647,580.564257 C655.835556,579.917671 655.376386,579.383534 654.814137,578.961847 C654.251888,578.540161 653.619357,578.198126 652.916546,577.935743 C652.213735,577.67336 651.515609,577.429719 650.822169,577.204819 C650.25992,577.017403 649.721098,576.829987 649.205703,576.64257 C648.690308,576.455154 648.231138,576.216198 647.828193,575.925703 C647.425248,575.635207 647.101954,575.283802 646.858313,574.871486 C646.614672,574.45917 646.492851,573.934404 646.492851,573.297189 C646.492851,572.659973 646.619357,572.107095 646.872369,571.638554 C647.125382,571.170013 647.458046,570.781124 647.870361,570.471888 C648.282677,570.162651 648.741847,569.933066 649.247871,569.783133 C649.753896,569.633199 650.250549,569.558233 650.737831,569.558233 C651.693655,569.558233 652.508916,569.740964 653.183614,570.106426 C653.858313,570.471888 654.411191,570.954485 654.842249,571.554217 L654.842249,571.554217 L656.444659,570.261044 C655.957376,569.605087 655.235823,569.038153 654.28,568.560241 C653.324177,568.082329 652.171566,567.843373 650.822169,567.843373 C650.091245,567.843373 649.35095,567.946452 648.601285,568.15261 C647.85162,568.358768 647.16755,568.686747 646.549076,569.136546 C645.930602,569.586345 645.429264,570.157965 645.04506,570.851406 C644.660857,571.544846 644.468755,572.369478 644.468755,573.325301 C644.468755,574.2249 644.623373,574.983936 644.93261,575.60241 C645.241847,576.220884 645.649478,576.740964 646.155502,577.162651 C646.661526,577.584337 647.233146,577.926372 647.870361,578.188755 C648.507577,578.451138 649.154163,578.685408 649.81012,578.891566 C650.447336,579.097724 651.056439,579.303882 651.63743,579.51004 C652.21842,579.716198 652.733815,579.973896 653.183614,580.283133 C653.633414,580.592369 653.99419,580.976573 654.265944,581.435743 C654.537697,581.894913 654.673574,582.471218 654.673574,583.164659 C654.673574,583.801874 654.537697,584.359438 654.265944,584.837349 C653.99419,585.315261 653.64747,585.718206 653.225783,586.046185 C652.804096,586.374163 652.33087,586.617805 651.806104,586.777108 C651.281339,586.936412 650.765944,587.016064 650.25992,587.016064 C649.210388,587.016064 648.296734,586.777108 647.518956,586.299197 C646.741178,585.821285 646.13676,585.226238 645.705703,584.514056 L645.705703,584.514056 L643.962731,585.807229 C644.318822,586.294511 644.731138,586.725569 645.199679,587.100402 C645.66822,587.475234 646.174244,587.784471 646.717751,588.028112 C647.261258,588.271754 647.832878,588.454485 648.43261,588.576305 C649.032343,588.698126 649.632075,588.759036 650.231807,588.759036 Z M673.733815,588.253012 L678.737831,571.160643 L678.794056,571.160643 L683.798072,588.253012 L686.159518,588.253012 L692.03502,568.349398 L689.898474,568.349398 L685.03502,585.46988 L684.978795,585.46988 L680.002892,568.349398 L677.585221,568.349398 L672.609317,585.46988 L672.553092,585.46988 L667.633414,568.349398 L665.496867,568.349398 L671.372369,588.253012 L673.733815,588.253012 Z M699.794056,588.590361 C700.881071,588.590361 701.897805,588.374833 702.844257,587.943775 C703.79071,587.512718 704.65751,586.800535 705.444659,585.807229 L705.444659,585.807229 L704.010924,584.682731 C703.636091,585.282463 703.087898,585.811914 702.366345,586.271084 C701.644793,586.730254 700.787363,586.959839 699.794056,586.959839 C699.119357,586.959839 698.491513,586.833333 697.910522,586.580321 C697.329531,586.327309 696.823507,585.985274 696.39245,585.554217 C695.961392,585.123159 695.624043,584.617135 695.380402,584.036145 C695.13676,583.455154 695.005569,582.83668 694.986827,582.180723 L694.986827,582.180723 L705.894458,582.180723 C705.913199,582.012048 705.92257,581.852744 705.92257,581.702811 L705.92257,581.702811 L705.92257,581.281124 C705.92257,580.381526 705.786693,579.538153 705.51494,578.751004 C705.243186,577.963855 704.844926,577.2751 704.320161,576.684739 C703.795395,576.094378 703.139438,575.625837 702.352289,575.279116 C701.565141,574.932396 700.656171,574.759036 699.625382,574.759036 C698.6883,574.759036 697.816814,574.932396 697.010924,575.279116 C696.205033,575.625837 695.502222,576.108434 694.90249,576.726908 C694.302758,577.345382 693.834217,578.076305 693.496867,578.919679 C693.159518,579.763052 692.990843,580.681392 692.990843,581.674699 C692.990843,582.668005 693.164203,583.586345 693.510924,584.429719 C693.857644,585.273092 694.33087,586.004016 694.930602,586.62249 C695.530335,587.240964 696.247202,587.723561 697.081205,588.070281 C697.915207,588.417001 698.819491,588.590361 699.794056,588.590361 Z M703.982811,580.662651 L695.01494,580.662651 C695.052423,580.100402 695.192985,579.56158 695.436627,579.046185 C695.680268,578.53079 696.008246,578.07162 696.420562,577.668675 C696.832878,577.26573 697.31079,576.947122 697.854297,576.712851 C698.397805,576.478581 698.988166,576.361446 699.625382,576.361446 C700.993521,576.361446 702.047738,576.769076 702.788032,577.584337 C703.528327,578.399598 703.926586,579.425703 703.982811,580.662651 L703.982811,580.662651 Z M717.026988,588.590361 C718.057778,588.590361 718.990174,588.412316 719.824177,588.056225 C720.658179,587.700134 721.370361,587.212851 721.960723,586.594378 C722.551084,585.975904 723.010254,585.24498 723.338233,584.401606 C723.666212,583.558233 723.830201,582.649264 723.830201,581.674699 C723.830201,580.700134 723.666212,579.791165 723.338233,578.947791 C723.010254,578.104418 722.551084,577.373494 721.960723,576.75502 C721.370361,576.136546 720.658179,575.649264 719.824177,575.293173 C718.990174,574.937082 718.057778,574.759036 717.026988,574.759036 C716.071165,574.759036 715.143454,574.97925 714.243855,575.419679 C713.344257,575.860107 712.613333,576.511379 712.051084,577.373494 L712.051084,577.373494 L711.994859,577.373494 L711.994859,567 L710.083213,567 L710.083213,588.253012 L711.994859,588.253012 L711.994859,586.032129 L712.051084,586.032129 C712.613333,586.875502 713.344257,587.512718 714.243855,587.943775 C715.143454,588.374833 716.071165,588.590361 717.026988,588.590361 Z M716.830201,586.959839 C716.099277,586.959839 715.424578,586.823963 714.806104,586.552209 C714.187631,586.280455 713.653494,585.910308 713.203695,585.441767 C712.753896,584.973226 712.40249,584.415663 712.149478,583.769076 C711.896466,583.12249 711.76996,582.424364 711.76996,581.674699 C711.76996,580.925033 711.896466,580.226908 712.149478,579.580321 C712.40249,578.933735 712.753896,578.371486 713.203695,577.893574 C713.653494,577.415663 714.187631,577.04083 714.806104,576.769076 C715.424578,576.497323 716.099277,576.361446 716.830201,576.361446 C717.617349,576.361446 718.320161,576.502008 718.938635,576.783133 C719.557108,577.064257 720.077189,577.443775 720.498876,577.921687 C720.920562,578.399598 721.243855,578.961847 721.468755,579.608434 C721.693655,580.25502 721.806104,580.943775 721.806104,581.674699 C721.806104,582.405622 721.693655,583.094378 721.468755,583.740964 C721.243855,584.38755 720.920562,584.949799 720.498876,585.427711 C720.077189,585.905622 719.557108,586.280455 718.938635,586.552209 C718.320161,586.823963 717.617349,586.959839 716.830201,586.959839 Z M734.428594,588.253012 L736.593253,583.024096 L746.88241,583.024096 L749.075181,588.253012 L751.324177,588.253012 L742.777992,568.349398 L740.81012,568.349398 L732.207711,588.253012 L734.428594,588.253012 Z M746.123373,581.168675 L737.352289,581.168675 L741.737831,570.598394 L746.123373,581.168675 Z M756.047068,595 L756.047068,586.032129 L756.131406,586.032129 C756.674913,586.85676 757.401151,587.48929 758.31012,587.929719 C759.21909,588.370147 760.142115,588.590361 761.079197,588.590361 C762.109987,588.590361 763.042383,588.412316 763.876386,588.056225 C764.710388,587.700134 765.42257,587.212851 766.012932,586.594378 C766.603293,585.975904 767.062463,585.24498 767.390442,584.401606 C767.71842,583.558233 767.88241,582.649264 767.88241,581.674699 C767.88241,580.700134 767.71842,579.791165 767.390442,578.947791 C767.062463,578.104418 766.603293,577.373494 766.012932,576.75502 C765.42257,576.136546 764.710388,575.649264 763.876386,575.293173 C763.042383,574.937082 762.109987,574.759036 761.079197,574.759036 C760.142115,574.759036 759.21909,574.97925 758.31012,575.419679 C757.401151,575.860107 756.674913,576.511379 756.131406,577.373494 L756.131406,577.373494 L756.047068,577.373494 L756.047068,575.096386 L754.135422,575.096386 L754.135422,595 L756.047068,595 Z M760.88241,586.959839 C760.151486,586.959839 759.476787,586.823963 758.858313,586.552209 C758.239839,586.280455 757.705703,585.910308 757.255904,585.441767 C756.806104,584.973226 756.454699,584.415663 756.201687,583.769076 C755.948675,583.12249 755.822169,582.424364 755.822169,581.674699 C755.822169,580.925033 755.948675,580.226908 756.201687,579.580321 C756.454699,578.933735 756.806104,578.371486 757.255904,577.893574 C757.705703,577.415663 758.239839,577.04083 758.858313,576.769076 C759.476787,576.497323 760.151486,576.361446 760.88241,576.361446 C761.669558,576.361446 762.372369,576.502008 762.990843,576.783133 C763.609317,577.064257 764.129398,577.443775 764.551084,577.921687 C764.972771,578.399598 765.296064,578.961847 765.520964,579.608434 C765.745863,580.25502 765.858313,580.943775 765.858313,581.674699 C765.858313,582.405622 765.745863,583.094378 765.520964,583.740964 C765.296064,584.38755 764.972771,584.949799 764.551084,585.427711 C764.129398,585.905622 763.609317,586.280455 762.990843,586.552209 C762.372369,586.823963 761.669558,586.959839 760.88241,586.959839 Z M773.898474,595 L773.898474,586.032129 L773.982811,586.032129 C774.526319,586.85676 775.252557,587.48929 776.161526,587.929719 C777.070495,588.370147 777.993521,588.590361 778.930602,588.590361 C779.961392,588.590361 780.893788,588.412316 781.727791,588.056225 C782.561794,587.700134 783.273976,587.212851 783.864337,586.594378 C784.454699,585.975904 784.913869,585.24498 785.241847,584.401606 C785.569826,583.558233 785.733815,582.649264 785.733815,581.674699 C785.733815,580.700134 785.569826,579.791165 785.241847,578.947791 C784.913869,578.104418 784.454699,577.373494 783.864337,576.75502 C783.273976,576.136546 782.561794,575.649264 781.727791,575.293173 C780.893788,574.937082 779.961392,574.759036 778.930602,574.759036 C777.993521,574.759036 777.070495,574.97925 776.161526,575.419679 C775.252557,575.860107 774.526319,576.511379 773.982811,577.373494 L773.982811,577.373494 L773.898474,577.373494 L773.898474,575.096386 L771.986827,575.096386 L771.986827,595 L773.898474,595 Z M778.733815,586.959839 C778.002892,586.959839 777.328193,586.823963 776.709719,586.552209 C776.091245,586.280455 775.557108,585.910308 775.107309,585.441767 C774.65751,584.973226 774.306104,584.415663 774.053092,583.769076 C773.80008,583.12249 773.673574,582.424364 773.673574,581.674699 C773.673574,580.925033 773.80008,580.226908 774.053092,579.580321 C774.306104,578.933735 774.65751,578.371486 775.107309,577.893574 C775.557108,577.415663 776.091245,577.04083 776.709719,576.769076 C777.328193,576.497323 778.002892,576.361446 778.733815,576.361446 C779.520964,576.361446 780.223775,576.502008 780.842249,576.783133 C781.460723,577.064257 781.980803,577.443775 782.40249,577.921687 C782.824177,578.399598 783.14747,578.961847 783.372369,579.608434 C783.597269,580.25502 783.709719,580.943775 783.709719,581.674699 C783.709719,582.405622 783.597269,583.094378 783.372369,583.740964 C783.14747,584.38755 782.824177,584.949799 782.40249,585.427711 C781.980803,585.905622 781.460723,586.280455 780.842249,586.552209 C780.223775,586.823963 779.520964,586.959839 778.733815,586.959839 Z M795.854297,588.253012 C796.997537,588.253012 798.028327,588.121821 798.946667,587.859438 C799.865007,587.597055 800.642784,587.226908 801.28,586.748996 C801.917216,586.271084 802.409183,585.690094 802.755904,585.006024 C803.102624,584.321954 803.275984,583.567604 803.275984,582.742972 C803.275984,581.281124 802.849612,580.123829 801.996867,579.271084 C801.144123,578.41834 800.071165,577.917001 798.777992,577.767068 L798.777992,577.767068 L798.777992,577.710843 C799.846265,577.467202 800.699009,576.956493 801.336225,576.178715 C801.97344,575.400937 802.292048,574.487282 802.292048,573.437751 C802.292048,572.444444 802.099946,571.619813 801.715743,570.963855 C801.331539,570.307898 800.834886,569.787818 800.225783,569.403614 C799.61668,569.019411 798.927925,568.747657 798.159518,568.588353 C797.391111,568.42905 796.632075,568.349398 795.88241,568.349398 L795.88241,568.349398 L789.950683,568.349398 L789.950683,588.253012 L795.854297,588.253012 Z M796.051084,577.064257 L791.974779,577.064257 L791.974779,570.092369 L795.488835,570.092369 C796.144793,570.092369 796.763266,570.15328 797.344257,570.2751 C797.925248,570.396921 798.431272,570.598394 798.862329,570.879518 C799.293387,571.160643 799.635422,571.521419 799.888434,571.961847 C800.141446,572.402276 800.267952,572.941098 800.267952,573.578313 C800.267952,574.23427 800.141446,574.787149 799.888434,575.236948 C799.635422,575.686747 799.302758,576.047523 798.890442,576.319277 C798.478126,576.591031 798.023641,576.783133 797.526988,576.895582 C797.030335,577.008032 796.538367,577.064257 796.051084,577.064257 L796.051084,577.064257 Z M795.741847,586.51004 L791.974779,586.51004 L791.974779,578.722892 L796.107309,578.722892 C797.737831,578.722892 798.998206,579.046185 799.888434,579.692771 C800.778661,580.339357 801.223775,581.318608 801.223775,582.630522 C801.223775,583.323963 801.073842,583.919009 800.773976,584.415663 C800.47411,584.912316 800.07585,585.315261 799.579197,585.624498 C799.082544,585.933735 798.501553,586.158635 797.836225,586.299197 C797.170897,586.439759 796.472771,586.51004 795.741847,586.51004 L795.741847,586.51004 Z M812.609317,588.590361 C813.546399,588.590361 814.436627,588.351406 815.28,587.873494 C816.123373,587.395582 816.732477,586.772423 817.107309,586.004016 L817.107309,586.004016 L817.163534,586.004016 C817.163534,586.285141 817.172905,586.641232 817.191647,587.072289 C817.210388,587.503347 817.238501,587.896921 817.275984,588.253012 L817.275984,588.253012 L819.103293,588.253012 C819.06581,587.803213 819.037697,587.297189 819.018956,586.73494 C819.000214,586.172691 818.990843,585.713521 818.990843,585.35743 L818.990843,575.096386 L817.079197,575.096386 L817.079197,581.843373 C817.079197,582.72423 816.966747,583.487952 816.741847,584.134538 C816.516948,584.781124 816.217082,585.315261 815.842249,585.736948 C815.467416,586.158635 815.041044,586.472557 814.563133,586.678715 C814.085221,586.884873 813.593253,586.987952 813.087229,586.987952 C812.393788,586.987952 811.817483,586.875502 811.358313,586.650602 C810.899143,586.425703 810.533681,586.11178 810.261928,585.708835 C809.990174,585.30589 809.798072,584.823293 809.685622,584.261044 C809.573173,583.698795 809.516948,583.07095 809.516948,582.37751 L809.516948,582.37751 L809.516948,575.096386 L807.605301,575.096386 L807.605301,583.164659 C807.605301,584.795181 808.022303,586.107095 808.856305,587.100402 C809.690308,588.093708 810.941312,588.590361 812.609317,588.590361 Z M825.03502,571.385542 C825.372369,571.385542 825.681606,571.259036 825.962731,571.006024 C826.243855,570.753012 826.384418,570.429719 826.384418,570.036145 C826.384418,569.64257 826.243855,569.319277 825.962731,569.066265 C825.681606,568.813253 825.372369,568.686747 825.03502,568.686747 C824.697671,568.686747 824.388434,568.813253 824.107309,569.066265 C823.826185,569.319277 823.685622,569.64257 823.685622,570.036145 C823.685622,570.429719 823.826185,570.753012 824.107309,571.006024 C824.388434,571.259036 824.697671,571.385542 825.03502,571.385542 Z M825.990843,588.253012 L825.990843,575.096386 L824.079197,575.096386 L824.079197,588.253012 L825.990843,588.253012 Z M833.047068,588.253012 L833.047068,567 L831.135422,567 L831.135422,588.253012 L833.047068,588.253012 Z M844.010924,588.590361 C844.966747,588.590361 845.894458,588.374833 846.794056,587.943775 C847.693655,587.512718 848.424578,586.875502 848.986827,586.032129 L848.986827,586.032129 L849.043052,586.032129 L849.043052,588.253012 L850.954699,588.253012 L850.954699,567 L849.043052,567 L849.043052,577.373494 L848.986827,577.373494 C848.424578,576.511379 847.693655,575.860107 846.794056,575.419679 C845.894458,574.97925 844.966747,574.759036 844.010924,574.759036 C842.980134,574.759036 842.047738,574.937082 841.213735,575.293173 C840.379732,575.649264 839.66755,576.136546 839.077189,576.75502 C838.486827,577.373494 838.027657,578.104418 837.699679,578.947791 C837.3717,579.791165 837.207711,580.700134 837.207711,581.674699 C837.207711,582.649264 837.3717,583.558233 837.699679,584.401606 C838.027657,585.24498 838.486827,585.975904 839.077189,586.594378 C839.66755,587.212851 840.379732,587.700134 841.213735,588.056225 C842.047738,588.412316 842.980134,588.590361 844.010924,588.590361 Z M844.207711,586.959839 C843.420562,586.959839 842.717751,586.823963 842.099277,586.552209 C841.480803,586.280455 840.960723,585.905622 840.539036,585.427711 C840.117349,584.949799 839.794056,584.38755 839.569157,583.740964 C839.344257,583.094378 839.231807,582.405622 839.231807,581.674699 C839.231807,580.943775 839.344257,580.25502 839.569157,579.608434 C839.794056,578.961847 840.117349,578.399598 840.539036,577.921687 C840.960723,577.443775 841.480803,577.064257 842.099277,576.783133 C842.717751,576.502008 843.420562,576.361446 844.207711,576.361446 C844.938635,576.361446 845.613333,576.497323 846.231807,576.769076 C846.850281,577.04083 847.384418,577.415663 847.834217,577.893574 C848.284016,578.371486 848.635422,578.933735 848.888434,579.580321 C849.141446,580.226908 849.267952,580.925033 849.267952,581.674699 C849.267952,582.424364 849.141446,583.12249 848.888434,583.769076 C848.635422,584.415663 848.284016,584.973226 847.834217,585.441767 C847.384418,585.910308 846.850281,586.280455 846.231807,586.552209 C845.613333,586.823963 844.938635,586.959839 844.207711,586.959839 Z M861.918554,588.590361 C863.005569,588.590361 864.022303,588.374833 864.968755,587.943775 C865.915207,587.512718 866.782008,586.800535 867.569157,585.807229 L867.569157,585.807229 L866.135422,584.682731 C865.760589,585.282463 865.212396,585.811914 864.490843,586.271084 C863.76929,586.730254 862.911861,586.959839 861.918554,586.959839 C861.243855,586.959839 860.616011,586.833333 860.03502,586.580321 C859.454029,586.327309 858.948005,585.985274 858.516948,585.554217 C858.08589,585.123159 857.748541,584.617135 857.5049,584.036145 C857.261258,583.455154 857.130067,582.83668 857.111325,582.180723 L857.111325,582.180723 L868.018956,582.180723 C868.037697,582.012048 868.047068,581.852744 868.047068,581.702811 L868.047068,581.702811 L868.047068,581.281124 C868.047068,580.381526 867.911191,579.538153 867.639438,578.751004 C867.367684,577.963855 866.969424,577.2751 866.444659,576.684739 C865.919893,576.094378 865.263936,575.625837 864.476787,575.279116 C863.689639,574.932396 862.780669,574.759036 861.74988,574.759036 C860.812798,574.759036 859.941312,574.932396 859.135422,575.279116 C858.329531,575.625837 857.62672,576.108434 857.026988,576.726908 C856.427256,577.345382 855.958715,578.076305 855.621365,578.919679 C855.284016,579.763052 855.115341,580.681392 855.115341,581.674699 C855.115341,582.668005 855.288701,583.586345 855.635422,584.429719 C855.982142,585.273092 856.455368,586.004016 857.0551,586.62249 C857.654833,587.240964 858.3717,587.723561 859.205703,588.070281 C860.039705,588.417001 860.943989,588.590361 861.918554,588.590361 Z M866.107309,580.662651 L857.139438,580.662651 C857.176921,580.100402 857.317483,579.56158 857.561124,579.046185 C857.804766,578.53079 858.132744,578.07162 858.54506,577.668675 C858.957376,577.26573 859.435288,576.947122 859.978795,576.712851 C860.522303,576.478581 861.112664,576.361446 861.74988,576.361446 C863.118019,576.361446 864.172236,576.769076 864.91253,577.584337 C865.652825,578.399598 866.051084,579.425703 866.107309,580.662651 L866.107309,580.662651 Z M874.063133,588.253012 L874.063133,581.506024 C874.063133,580.625167 874.170897,579.870817 874.386426,579.242972 C874.601954,578.615127 874.883079,578.099732 875.229799,577.696787 C875.576519,577.293842 875.98415,576.998661 876.452691,576.811245 C876.921232,576.623829 877.408514,576.53012 877.914538,576.53012 C878.176921,576.53012 878.439304,576.548862 878.701687,576.586345 C878.96407,576.623829 879.151486,576.661312 879.263936,576.698795 L879.263936,576.698795 L879.516948,574.899598 C879.31079,574.843373 879.109317,574.80589 878.91253,574.787149 C878.715743,574.768407 878.495529,574.759036 878.251888,574.759036 C877.314806,574.759036 876.471432,574.997992 875.721767,575.475904 C874.972102,575.953815 874.409853,576.576975 874.03502,577.345382 L874.03502,577.345382 L873.978795,577.345382 C873.978795,577.064257 873.969424,576.708166 873.950683,576.277108 C873.931941,575.846051 873.903829,575.452477 873.866345,575.096386 L873.866345,575.096386 L872.039036,575.096386 C872.076519,575.546185 872.104632,576.052209 872.123373,576.614458 C872.142115,577.176707 872.151486,577.635877 872.151486,577.991968 L872.151486,577.991968 L872.151486,588.253012 L874.063133,588.253012 Z" id="logo_text_updated"></path>
        </g>
    </g>
</svg>